# xmcd
#
# Track frame offsets:
#	150
#	9945
#	23715
#	40235
#	57145
#	72450
#	93845
#	108520
#	121290
#	138980
#	153450
#	171790
#	189015
#	205835
#
# Disc length: 3006 seconds
#
# Revision: 1
# Processed by: cddbd v1.4b42PL0 Copyright (c) Steve Scherf et al.
# Submitted via: audiograbber 1.80
#
DISCID=ae0bbc0e
DTITLE=Celso Viáfora - Paixão Candeeira
DYEAR=1900
DGENRE=
TTITLE0=Quebra a Cara
TTITLE1=Pastel de Feira
TTITLE2=Por um Fio
TTITLE3=Quando Foi?
TTITLE4=Enxerida no Contexto
TTITLE5=Olhando o Pixinguinha
TTITLE6=Canção Brasileira
TTITLE7=Uma Lágrima
TTITLE8=A Notícia
TTITLE9=Sorte Grande (O Portuga)
TTITLE10=Casa Vazia
TTITLE11=O Rio Virou Sertão
TTITLE12=Paixão Candeeira
TTITLE13=Luz do Meu Samba
EXTD=
EXTT0=Celso Viáfora
EXTT1=Vicente Barreto e Celso Viáfora
EXTT2=Vicente Barreto e Celso Viáfora
EXTT3=Vicente Barreto e Celso Viáfora
EXTT4=Celso Viáfora
EXTT5=Vicente Barreto e Celso Viáfora
EXTT6=Celso Viáfora
EXTT7=Celso Viáfora
EXTT8=Vicente Barreto e Celso Viáfora
EXTT9=Celso Viáfora
EXTT10=Vicente Barreto e Celso Viáfora
EXTT11=Vicente Barreto e Celso Viáfora
EXTT12=Celso Viáfora
EXTT13=Celso Viáfora
PLAYORDER=
